<svg xmlns="http://www.w3.org/2000/svg" viewBox="0 0 64 64" role="img" aria-label="Weather Forecast icon">
  <rect width="64" height="64" rx="12" fill="#f5f7fb" />
  <rect x="4" y="4" width="56" height="56" rx="10" fill="#0c67d5" />
  <circle cx="22" cy="24" r="7" fill="#ffd666" />
  <path d="M22 18v-4M22 34v-4M16 24h-4M32 24h-4M17.8 19.8l-2.8-2.8M29 31l-2.8-2.8M17.8 28.2 15 31M29 17l-2.8 2.8" stroke="#ffd666" stroke-width="2" stroke-linecap="round"/>
  <path d="M24 43c0-4 3-7 7-7 3 0 5.5 1.8 6.6 4.3A5.5 5.5 0 1 1 41 51H24a4 4 0 0 1 0-8z" fill="#e9f2ff" />
</svg>
